<mxfile host="app.diagrams.net" agent="Mozilla/5.0 (Windows NT 10.0; Win64; x64) AppleWebKit/537.36 (KHTML, like Gecko) Chrome/129.0.0.0 Safari/537.36 Edg/129.0.0.0" version="24.7.16">
  <diagram id="C5RBs43oDa-KdzZeNtuy" name="Page-1">
    <mxGraphModel dx="1416" dy="729" grid="1" gridSize="10" guides="1" tooltips="1" connect="1" arrows="1" fold="1" page="1" pageScale="1" pageWidth="1169" pageHeight="827" math="0" shadow="0">
      <root>
        <mxCell id="WIyWlLk6GJQsqaUBKTNV-0" />
        <mxCell id="WIyWlLk6GJQsqaUBKTNV-1" parent="WIyWlLk6GJQsqaUBKTNV-0" />
        <mxCell id="PalDwfmzIeQPXqVV_MEm-7" style="edgeStyle=orthogonalEdgeStyle;rounded=0;orthogonalLoop=1;jettySize=auto;html=1;exitX=1;exitY=0.5;exitDx=0;exitDy=0;entryX=0;entryY=0.5;entryDx=0;entryDy=0;" edge="1" parent="WIyWlLk6GJQsqaUBKTNV-1" source="PalDwfmzIeQPXqVV_MEm-2" target="PalDwfmzIeQPXqVV_MEm-5">
          <mxGeometry relative="1" as="geometry">
            <Array as="points">
              <mxPoint x="110" y="384" />
              <mxPoint x="110" y="55" />
            </Array>
          </mxGeometry>
        </mxCell>
        <mxCell id="PalDwfmzIeQPXqVV_MEm-48" style="edgeStyle=orthogonalEdgeStyle;rounded=0;orthogonalLoop=1;jettySize=auto;html=1;entryX=0;entryY=0.5;entryDx=0;entryDy=0;" edge="1" parent="WIyWlLk6GJQsqaUBKTNV-1" source="PalDwfmzIeQPXqVV_MEm-2" target="PalDwfmzIeQPXqVV_MEm-41">
          <mxGeometry relative="1" as="geometry">
            <Array as="points">
              <mxPoint x="125" y="410" />
              <mxPoint x="125" y="600" />
            </Array>
          </mxGeometry>
        </mxCell>
        <mxCell id="PalDwfmzIeQPXqVV_MEm-2" value="양도자" style="rounded=1;whiteSpace=wrap;html=1;" vertex="1" parent="WIyWlLk6GJQsqaUBKTNV-1">
          <mxGeometry x="10" y="354" width="90" height="60" as="geometry" />
        </mxCell>
        <mxCell id="PalDwfmzIeQPXqVV_MEm-11" style="edgeStyle=orthogonalEdgeStyle;rounded=0;orthogonalLoop=1;jettySize=auto;html=1;exitX=1;exitY=0.5;exitDx=0;exitDy=0;" edge="1" parent="WIyWlLk6GJQsqaUBKTNV-1" source="PalDwfmzIeQPXqVV_MEm-5">
          <mxGeometry relative="1" as="geometry">
            <mxPoint x="300" y="55" as="targetPoint" />
          </mxGeometry>
        </mxCell>
        <mxCell id="PalDwfmzIeQPXqVV_MEm-5" value="티켓 거래 게시물을 작성" style="rounded=1;whiteSpace=wrap;html=1;" vertex="1" parent="WIyWlLk6GJQsqaUBKTNV-1">
          <mxGeometry x="120" y="40" width="140" height="30" as="geometry" />
        </mxCell>
        <mxCell id="PalDwfmzIeQPXqVV_MEm-15" style="edgeStyle=orthogonalEdgeStyle;rounded=0;orthogonalLoop=1;jettySize=auto;html=1;exitX=1;exitY=0.5;exitDx=0;exitDy=0;" edge="1" parent="WIyWlLk6GJQsqaUBKTNV-1">
          <mxGeometry relative="1" as="geometry">
            <mxPoint x="482.0000000000002" y="55" as="sourcePoint" />
            <mxPoint x="522" y="55" as="targetPoint" />
          </mxGeometry>
        </mxCell>
        <mxCell id="PalDwfmzIeQPXqVV_MEm-24" value="" style="edgeStyle=orthogonalEdgeStyle;rounded=0;orthogonalLoop=1;jettySize=auto;html=1;" edge="1" parent="WIyWlLk6GJQsqaUBKTNV-1" source="PalDwfmzIeQPXqVV_MEm-9" target="PalDwfmzIeQPXqVV_MEm-23">
          <mxGeometry relative="1" as="geometry" />
        </mxCell>
        <mxCell id="PalDwfmzIeQPXqVV_MEm-9" value="예매내역서, 예매번호 가린 예매내역서, 자리 위치 캡처 사진, 자리 위치에 스티커 붙인 사진&amp;nbsp; 업로드" style="rounded=1;whiteSpace=wrap;html=1;" vertex="1" parent="WIyWlLk6GJQsqaUBKTNV-1">
          <mxGeometry x="300" y="25" width="180" height="60" as="geometry" />
        </mxCell>
        <mxCell id="PalDwfmzIeQPXqVV_MEm-20" value="" style="edgeStyle=orthogonalEdgeStyle;rounded=0;orthogonalLoop=1;jettySize=auto;html=1;" edge="1" parent="WIyWlLk6GJQsqaUBKTNV-1" source="PalDwfmzIeQPXqVV_MEm-13" target="PalDwfmzIeQPXqVV_MEm-19">
          <mxGeometry relative="1" as="geometry" />
        </mxCell>
        <mxCell id="PalDwfmzIeQPXqVV_MEm-13" value="앨범에서 사진 선택" style="rounded=1;whiteSpace=wrap;html=1;" vertex="1" parent="WIyWlLk6GJQsqaUBKTNV-1">
          <mxGeometry x="522" y="40" width="120" height="30" as="geometry" />
        </mxCell>
        <mxCell id="PalDwfmzIeQPXqVV_MEm-16" value="&lt;ul&gt;&lt;li&gt;예매내역서 , 휴대폰 뒷자리, 자리 위치 캡처 사진를 필수로 업로드해야 함. 이 사진에 대한 정확도는 양수자가 판단하는 걸로..(우리의 목표는 어쨌든 송금 검증용 웹이기 때문에)&lt;/li&gt;&lt;/ul&gt;&lt;ul&gt;&lt;li&gt;자동으로 가려주는 프로그램 사용 or 사용자가 직접 예매번호를 가린 예매내역서 &amp;amp; 자리 위치를 모자이크한 사진을 올리도록&lt;/li&gt;&lt;/ul&gt;" style="text;html=1;align=left;verticalAlign=middle;whiteSpace=wrap;rounded=0;" vertex="1" parent="WIyWlLk6GJQsqaUBKTNV-1">
          <mxGeometry x="952" y="40" width="490" height="30" as="geometry" />
        </mxCell>
        <mxCell id="PalDwfmzIeQPXqVV_MEm-22" value="" style="edgeStyle=orthogonalEdgeStyle;rounded=0;orthogonalLoop=1;jettySize=auto;html=1;" edge="1" parent="WIyWlLk6GJQsqaUBKTNV-1" source="PalDwfmzIeQPXqVV_MEm-19" target="PalDwfmzIeQPXqVV_MEm-21">
          <mxGeometry relative="1" as="geometry" />
        </mxCell>
        <mxCell id="PalDwfmzIeQPXqVV_MEm-19" value="휴대폰 갤러리(포토) 실행" style="whiteSpace=wrap;html=1;rounded=1;" vertex="1" parent="WIyWlLk6GJQsqaUBKTNV-1">
          <mxGeometry x="672" y="40" width="140" height="30" as="geometry" />
        </mxCell>
        <mxCell id="PalDwfmzIeQPXqVV_MEm-21" value="사진 선택 후 첨부" style="whiteSpace=wrap;html=1;rounded=1;" vertex="1" parent="WIyWlLk6GJQsqaUBKTNV-1">
          <mxGeometry x="842" y="40" width="110" height="30" as="geometry" />
        </mxCell>
        <mxCell id="PalDwfmzIeQPXqVV_MEm-26" value="" style="edgeStyle=orthogonalEdgeStyle;rounded=0;orthogonalLoop=1;jettySize=auto;html=1;" edge="1" parent="WIyWlLk6GJQsqaUBKTNV-1" source="PalDwfmzIeQPXqVV_MEm-23" target="PalDwfmzIeQPXqVV_MEm-25">
          <mxGeometry relative="1" as="geometry" />
        </mxCell>
        <mxCell id="PalDwfmzIeQPXqVV_MEm-30" value="" style="edgeStyle=orthogonalEdgeStyle;rounded=0;orthogonalLoop=1;jettySize=auto;html=1;" edge="1" parent="WIyWlLk6GJQsqaUBKTNV-1" source="PalDwfmzIeQPXqVV_MEm-23">
          <mxGeometry relative="1" as="geometry">
            <mxPoint x="390" y="237.5" as="targetPoint" />
          </mxGeometry>
        </mxCell>
        <mxCell id="PalDwfmzIeQPXqVV_MEm-23" value="내용 작성" style="whiteSpace=wrap;html=1;rounded=1;" vertex="1" parent="WIyWlLk6GJQsqaUBKTNV-1">
          <mxGeometry x="330" y="135" width="120" height="35" as="geometry" />
        </mxCell>
        <mxCell id="PalDwfmzIeQPXqVV_MEm-25" value="임시 작성" style="whiteSpace=wrap;html=1;rounded=1;" vertex="1" parent="WIyWlLk6GJQsqaUBKTNV-1">
          <mxGeometry x="530" y="135" width="120" height="32.5" as="geometry" />
        </mxCell>
        <mxCell id="PalDwfmzIeQPXqVV_MEm-27" value="&lt;ul style=&quot;forced-color-adjust: none;&quot;&gt;&lt;li style=&quot;forced-color-adjust: none;&quot;&gt;예매내역서 내용을 스캔해서 내용을 추출해내거나 or 사용자가 작품명, 예매자명, 예매번호, 관람일시, 장소, 캐스팅, 좌석 정보, 가격, 할인명를 직접 작성하도록 -&amp;gt; 직접 작성하는 방식의 경우 옆에 예매내역서 사진을 띄워서 사용자가 편하게 정보를 입력하도록 한다.&amp;nbsp;&lt;/li&gt;&lt;/ul&gt;&lt;ul style=&quot;forced-color-adjust: none;&quot;&gt;&lt;li style=&quot;forced-color-adjust: none;&quot;&gt;Backend는 draft data 저장 위치 생각. 사진 저장 공간 생각해야 함.&amp;nbsp;&lt;/li&gt;&lt;/ul&gt;&lt;div style=&quot;forced-color-adjust: none;&quot;&gt;&lt;br style=&quot;forced-color-adjust: none; color: rgb(0, 0, 0); font-family: Helvetica; font-size: 12px; font-style: normal; font-variant-ligatures: normal; font-variant-caps: normal; font-weight: 400; letter-spacing: normal; orphans: 2; text-align: left; text-indent: 0px; text-transform: none; widows: 2; word-spacing: 0px; -webkit-text-stroke-width: 0px; white-space: normal; background-color: rgb(251, 251, 251); text-decoration-thickness: initial; text-decoration-style: initial; text-decoration-color: initial;&quot;&gt;&lt;br&gt;&lt;br&gt;&lt;/div&gt;" style="text;whiteSpace=wrap;html=1;" vertex="1" parent="WIyWlLk6GJQsqaUBKTNV-1">
          <mxGeometry x="650" y="107.5" width="560" height="90" as="geometry" />
        </mxCell>
        <mxCell id="PalDwfmzIeQPXqVV_MEm-40" value="" style="edgeStyle=orthogonalEdgeStyle;rounded=0;orthogonalLoop=1;jettySize=auto;html=1;" edge="1" parent="WIyWlLk6GJQsqaUBKTNV-1" source="PalDwfmzIeQPXqVV_MEm-41" target="PalDwfmzIeQPXqVV_MEm-43">
          <mxGeometry relative="1" as="geometry">
            <Array as="points">
              <mxPoint x="320" y="600.87" />
              <mxPoint x="320" y="600.87" />
            </Array>
          </mxGeometry>
        </mxCell>
        <mxCell id="PalDwfmzIeQPXqVV_MEm-41" value="양수자의 대화방 참여" style="whiteSpace=wrap;html=1;rounded=1;" vertex="1" parent="WIyWlLk6GJQsqaUBKTNV-1">
          <mxGeometry x="150" y="584.37" width="120" height="32.5" as="geometry" />
        </mxCell>
        <mxCell id="PalDwfmzIeQPXqVV_MEm-50" value="" style="edgeStyle=orthogonalEdgeStyle;rounded=0;orthogonalLoop=1;jettySize=auto;html=1;" edge="1" parent="WIyWlLk6GJQsqaUBKTNV-1" source="PalDwfmzIeQPXqVV_MEm-43" target="PalDwfmzIeQPXqVV_MEm-49">
          <mxGeometry relative="1" as="geometry" />
        </mxCell>
        <mxCell id="PalDwfmzIeQPXqVV_MEm-43" value="카톡 or 메일로 참여 소식 알리기" style="whiteSpace=wrap;html=1;rounded=1;" vertex="1" parent="WIyWlLk6GJQsqaUBKTNV-1">
          <mxGeometry x="330" y="583.12" width="180" height="33.75" as="geometry" />
        </mxCell>
        <mxCell id="PalDwfmzIeQPXqVV_MEm-44" value="" style="edgeStyle=orthogonalEdgeStyle;rounded=0;orthogonalLoop=1;jettySize=auto;html=1;entryX=0;entryY=0.5;entryDx=0;entryDy=0;" edge="1" parent="WIyWlLk6GJQsqaUBKTNV-1" target="PalDwfmzIeQPXqVV_MEm-46">
          <mxGeometry relative="1" as="geometry">
            <mxPoint x="830" y="600.62" as="sourcePoint" />
            <mxPoint x="980" y="600.62" as="targetPoint" />
          </mxGeometry>
        </mxCell>
        <mxCell id="PalDwfmzIeQPXqVV_MEm-67" value="" style="edgeStyle=orthogonalEdgeStyle;rounded=0;orthogonalLoop=1;jettySize=auto;html=1;" edge="1" parent="WIyWlLk6GJQsqaUBKTNV-1" source="PalDwfmzIeQPXqVV_MEm-45" target="PalDwfmzIeQPXqVV_MEm-66">
          <mxGeometry relative="1" as="geometry" />
        </mxCell>
        <mxCell id="PalDwfmzIeQPXqVV_MEm-45" value="양도 양수 의사 여부" style="rhombus;whiteSpace=wrap;html=1;rounded=1;" vertex="1" parent="WIyWlLk6GJQsqaUBKTNV-1">
          <mxGeometry x="730" y="560.62" width="140" height="80" as="geometry" />
        </mxCell>
        <mxCell id="PalDwfmzIeQPXqVV_MEm-57" value="" style="edgeStyle=orthogonalEdgeStyle;rounded=0;orthogonalLoop=1;jettySize=auto;html=1;" edge="1" parent="WIyWlLk6GJQsqaUBKTNV-1" source="PalDwfmzIeQPXqVV_MEm-46" target="PalDwfmzIeQPXqVV_MEm-56">
          <mxGeometry relative="1" as="geometry" />
        </mxCell>
        <mxCell id="PalDwfmzIeQPXqVV_MEm-46" value="양수자에게 안심 계좌를 전송" style="whiteSpace=wrap;html=1;rounded=1;" vertex="1" parent="WIyWlLk6GJQsqaUBKTNV-1">
          <mxGeometry x="1020" y="585.93" width="170" height="29.38" as="geometry" />
        </mxCell>
        <mxCell id="PalDwfmzIeQPXqVV_MEm-47" value="양도 양수 계약 체결" style="text;html=1;align=center;verticalAlign=middle;whiteSpace=wrap;rounded=0;" vertex="1" parent="WIyWlLk6GJQsqaUBKTNV-1">
          <mxGeometry x="870" y="560.62" width="130" height="30" as="geometry" />
        </mxCell>
        <mxCell id="PalDwfmzIeQPXqVV_MEm-51" value="" style="edgeStyle=orthogonalEdgeStyle;rounded=0;orthogonalLoop=1;jettySize=auto;html=1;" edge="1" parent="WIyWlLk6GJQsqaUBKTNV-1" source="PalDwfmzIeQPXqVV_MEm-49" target="PalDwfmzIeQPXqVV_MEm-45">
          <mxGeometry relative="1" as="geometry" />
        </mxCell>
        <mxCell id="PalDwfmzIeQPXqVV_MEm-49" value="채팅으로 선 협의" style="whiteSpace=wrap;html=1;rounded=1;" vertex="1" parent="WIyWlLk6GJQsqaUBKTNV-1">
          <mxGeometry x="570" y="584.37" width="120" height="30" as="geometry" />
        </mxCell>
        <mxCell id="PalDwfmzIeQPXqVV_MEm-59" value="" style="edgeStyle=orthogonalEdgeStyle;rounded=0;orthogonalLoop=1;jettySize=auto;html=1;" edge="1" parent="WIyWlLk6GJQsqaUBKTNV-1" source="PalDwfmzIeQPXqVV_MEm-56" target="PalDwfmzIeQPXqVV_MEm-58">
          <mxGeometry relative="1" as="geometry" />
        </mxCell>
        <mxCell id="PalDwfmzIeQPXqVV_MEm-63" value="" style="edgeStyle=orthogonalEdgeStyle;rounded=0;orthogonalLoop=1;jettySize=auto;html=1;" edge="1" parent="WIyWlLk6GJQsqaUBKTNV-1" source="PalDwfmzIeQPXqVV_MEm-56" target="PalDwfmzIeQPXqVV_MEm-62">
          <mxGeometry relative="1" as="geometry" />
        </mxCell>
        <mxCell id="PalDwfmzIeQPXqVV_MEm-56" value="입금 확인 여부" style="rhombus;whiteSpace=wrap;html=1;rounded=1;" vertex="1" parent="WIyWlLk6GJQsqaUBKTNV-1">
          <mxGeometry x="1220" y="560.62" width="100" height="80" as="geometry" />
        </mxCell>
        <mxCell id="PalDwfmzIeQPXqVV_MEm-58" value="양도자에게 입금해주고 양수자에게 예매내역서 &amp;amp; 휴대폰 뒷자리 전송(메일로)" style="whiteSpace=wrap;html=1;rounded=1;" vertex="1" parent="WIyWlLk6GJQsqaUBKTNV-1">
          <mxGeometry x="1360" y="569.37" width="180" height="60" as="geometry" />
        </mxCell>
        <mxCell id="PalDwfmzIeQPXqVV_MEm-60" value="Y" style="text;html=1;align=center;verticalAlign=middle;whiteSpace=wrap;rounded=0;" vertex="1" parent="WIyWlLk6GJQsqaUBKTNV-1">
          <mxGeometry x="1305" y="567.12" width="60" height="30" as="geometry" />
        </mxCell>
        <mxCell id="PalDwfmzIeQPXqVV_MEm-62" value="12시간 내에 계좌로 송금하지 않을 시 계약 파기.&amp;nbsp;" style="whiteSpace=wrap;html=1;rounded=1;" vertex="1" parent="WIyWlLk6GJQsqaUBKTNV-1">
          <mxGeometry x="1200" y="680" width="330" height="30" as="geometry" />
        </mxCell>
        <mxCell id="PalDwfmzIeQPXqVV_MEm-64" value="N" style="text;html=1;align=center;verticalAlign=middle;whiteSpace=wrap;rounded=0;" vertex="1" parent="WIyWlLk6GJQsqaUBKTNV-1">
          <mxGeometry x="1200" y="640.62" width="60" height="30" as="geometry" />
        </mxCell>
        <mxCell id="PalDwfmzIeQPXqVV_MEm-75" value="" style="edgeStyle=orthogonalEdgeStyle;rounded=0;orthogonalLoop=1;jettySize=auto;html=1;" edge="1" parent="WIyWlLk6GJQsqaUBKTNV-1" source="PalDwfmzIeQPXqVV_MEm-66" target="PalDwfmzIeQPXqVV_MEm-74">
          <mxGeometry relative="1" as="geometry" />
        </mxCell>
        <mxCell id="PalDwfmzIeQPXqVV_MEm-66" value="대화방 닫기" style="whiteSpace=wrap;html=1;rounded=1;" vertex="1" parent="WIyWlLk6GJQsqaUBKTNV-1">
          <mxGeometry x="740" y="680" width="120" height="40" as="geometry" />
        </mxCell>
        <mxCell id="PalDwfmzIeQPXqVV_MEm-68" value="양수자, 양도자 계약 미체결" style="text;html=1;align=center;verticalAlign=middle;whiteSpace=wrap;rounded=0;" vertex="1" parent="WIyWlLk6GJQsqaUBKTNV-1">
          <mxGeometry x="812" y="640.62" width="148" height="30" as="geometry" />
        </mxCell>
        <mxCell id="PalDwfmzIeQPXqVV_MEm-77" value="" style="edgeStyle=orthogonalEdgeStyle;rounded=0;orthogonalLoop=1;jettySize=auto;html=1;entryX=0.5;entryY=1;entryDx=0;entryDy=0;" edge="1" parent="WIyWlLk6GJQsqaUBKTNV-1" source="PalDwfmzIeQPXqVV_MEm-74" target="PalDwfmzIeQPXqVV_MEm-41">
          <mxGeometry relative="1" as="geometry">
            <mxPoint x="460" y="700" as="targetPoint" />
          </mxGeometry>
        </mxCell>
        <mxCell id="PalDwfmzIeQPXqVV_MEm-74" value="새로운 대화방 개설" style="whiteSpace=wrap;html=1;rounded=1;" vertex="1" parent="WIyWlLk6GJQsqaUBKTNV-1">
          <mxGeometry x="540" y="670" width="120" height="60" as="geometry" />
        </mxCell>
      </root>
    </mxGraphModel>
  </diagram>
</mxfile>
